PathFileType	4	(X/Y/Z)	D:\TRACE\v60_Jaco2_6-2-23\JustBodyDRS_Motion2_3-v60.trc
DataRate	CameraRate	NumFrames	NumMarkers	Units	OrigDataRate	OrigDataStartFrame	OrigNumFrames
100.00	100.00	      31	9	mm	100.00	5126	      6834
Frame#	Time	front left toe			Front right toe			aft left toe			aft right toe			Arm			FL body			FR body			AL Body			AR Body			
		X1	Y1	Z1	X2	Y2	Z2	X3	Y3	Z3	X4	Y4	Z4	X5	Y5	Z5	X6	Y6	Z6	X7	Y7	Z7	X8	Y8	Z8	X9	Y9	Z9	

5126	51.250	-234.07468	7.50860	-170.69481	160.14990	84.74664	-218.01485	-147.63451	87.01566	447.02280	209.01860	36.03581	416.53644	-148.18861	1207.35498	-312.53555	-124.41287	574.82434	-318.01944	34.40974	574.46753	-336.03787	-20.57337	560.98956	622.75128	135.92882	554.89532	605.44690	
5127	51.260	-234.35234	7.25139	-170.91702	159.00764	76.77285	-218.72736	-149.98051	79.29882	445.73804	208.49911	36.43722	416.28662	-149.89206	1206.95557	-314.06223	-125.75159	574.84167	-318.69360	33.60275	574.13141	-336.31232	-20.92782	561.61371	621.99432	135.41685	555.61749	605.48163	
5128	51.270	-234.59758	6.90598	-171.01137	158.50482	68.92186	-219.24298	-152.07269	71.72411	444.70926	208.49004	37.26948	415.92340	-151.47702	1206.33667	-315.08578	-126.57395	574.21533	-319.10596	32.19409	573.67554	-336.64734	-20.95387	562.36597	621.46539	134.79813	556.39624	604.51886	
5129	51.280	-234.97847	6.40521	-171.19337	157.66631	61.59205	-219.92206	-153.25479	64.05172	443.74350	208.28195	37.87745	415.70288	-153.26448	1205.64563	-316.64090	-127.78203	573.82861	-319.85754	31.65033	573.44482	-337.67172	-21.73609	562.73712	620.88733	134.43472	556.88104	603.95239	
5130	51.290	-235.09444	5.99933	-171.40808	156.93330	54.24746	-220.46931	-154.19281	56.61328	443.20428	208.10275	38.48718	415.26746	-154.77338	1205.08423	-317.94727	-128.28609	573.04974	-320.39862	30.79403	573.03931	-338.25751	-22.50967	563.39093	620.19543	134.04988	557.85406	603.96515	
5131	51.300	-235.02110	5.43489	-171.80255	156.22295	47.18405	-220.61954	-154.59785	49.70110	442.93716	207.94385	38.99913	414.83374	-155.79453	1204.79858	-318.96512	-129.11089	572.68726	-321.03015	30.05177	572.64142	-339.11926	-22.89527	564.09143	619.71576	134.41985	558.66064	602.05518	
5132	51.310	-235.16319	5.19630	-171.98036	155.17775	40.42232	-220.70697	-154.93134	43.62785	442.53320	207.90111	39.90263	414.70337	-157.27571	1204.36780	-320.40710	-129.99637	572.29431	-321.81818	29.13037	572.41040	-339.93518	-23.45233	565.00378	618.83881	132.87062	559.58203	601.82367	
5133	51.320	-235.31003	4.80567	-171.99052	154.59618	34.01620	-221.16428	-156.37651	43.54787	440.01270	207.89352	40.67513	414.36011	-158.71347	1204.16248	-321.72693	-130.75645	571.74457	-322.35944	28.38151	572.23462	-340.30328	-23.87361	565.62878	618.24615	132.27325	560.84894	601.66339	
5134	51.330	-235.50221	4.42261	-172.20535	153.80643	27.02597	-221.47504	-157.11641	42.35459	439.41214	207.76988	41.20772	414.18579	-160.31024	1203.68506	-322.83109	-131.53647	571.54608	-322.97806	27.52839	571.74146	-341.15195	-24.28936	567.35706	617.39276	131.98344	562.06409	600.33203	
5135	51.340	-235.45287	3.91416	-172.31320	152.60811	20.06374	-221.60928	-156.89758	42.20715	440.16562	207.35692	42.11507	413.88721	-162.03024	1203.09973	-324.74203	-132.40811	570.53467	-323.59106	26.73646	570.97156	-342.09741	-24.61308	569.43555	616.81860	131.76375	564.18268	599.23334	
5136	51.350	-235.50984	3.65799	-172.63971	151.17763	12.61475	-221.20660	-156.18655	44.70961	440.34482	207.46706	43.10230	413.76346	-163.42415	1202.62732	-326.86920	-133.45238	570.01727	-324.23499	25.67563	570.16199	-342.68536	-24.68229	571.69495	616.26764	131.50946	566.35260	598.35443	
5137	51.360	-235.55663	3.49767	-172.70728	149.97574	-1.16095	-220.79910	-156.00934	44.69138	439.81525	207.32971	43.81615	413.35709	-163.88014	1202.21973	-329.99649	-134.14810	569.25909	-324.70062	25.00237	569.66077	-343.02618	-25.00776	573.28265	615.61316	131.14362	568.33466	598.30255	
5138	51.370	-235.39085	3.28346	-172.98213	152.86436	-2.90519	-223.50381	-155.80574	44.84724	439.73596	207.07820	44.03116	412.73871	-164.23347	1201.57324	-333.53528	-134.96095	569.34741	-324.90375	24.39323	570.09393	-343.89111	-25.11447	574.87878	615.23889	131.05588	569.99103	597.78528	
5139	51.380	-234.99478	3.66606	-173.32413	153.82463	-0.42892	-223.40944	-155.55200	45.28881	439.39609	207.76335	45.45787	412.40082	-164.79514	1201.37280	-336.25003	-136.06281	570.15137	-325.33371	23.66796	571.68164	-344.41400	-25.48676	576.33044	614.87524	130.77533	572.07025	597.76996	
5140	51.390	-232.94312	7.29904	-172.91605	151.49738	-1.42172	-223.02029	-155.26781	44.40538	439.36261	206.17355	49.14780	413.43765	-166.22542	1201.69678	-337.19809	-136.49414	571.00970	-325.85114	22.41188	572.43115	-344.61334	-25.13414	578.03198	614.39789	130.73972	573.47900	596.07208	
5141	51.400	-230.31381	11.62008	-169.80966	151.62404	-0.59017	-223.31041	-155.36983	44.82740	438.77872	203.24066	54.24818	417.12817	-168.91930	1202.52722	-337.12256	-136.79073	571.55365	-326.47086	22.77116	572.96698	-345.85587	-25.71265	579.76318	613.42596	130.17194	574.82422	595.95282	
5142	51.410	-228.30051	20.95866	-168.24821	152.60606	-1.08536	-223.88586	-154.83984	45.77912	438.10117	198.56129	65.06360	418.62445	-172.12875	1203.46997	-336.74820	-137.25290	571.04321	-327.43958	21.63644	572.79309	-346.17905	-26.57573	581.27551	612.69806	129.49590	576.94897	595.62762	
5143	51.420	-227.02419	30.34775	-167.62378	153.04619	-1.82083	-223.89558	-154.43393	45.89911	437.71722	194.83954	76.54375	419.78955	-175.10370	1204.02966	-336.65851	-137.35742	569.47021	-327.76352	21.11012	571.97968	-346.07214	-27.39335	582.61920	612.25458	128.73082	578.38043	594.17572	
5144	51.430	-226.10355	42.30193	-168.04933	153.18967	-2.37380	-223.84695	-154.24387	46.25303	437.85388	195.00914	90.26864	418.84586	-176.78087	1203.60498	-337.91357	-137.74046	568.95502	-328.37292	20.98683	571.19025	-346.78351	-28.21065	583.72821	611.93854	127.79501	579.84967	594.37036	
5145	51.440	-226.71837	55.28443	-169.18997	153.56906	-2.54477	-223.83240	-154.31868	46.31157	437.86414	196.92705	103.77499	417.55704	-177.73157	1201.65881	-340.15961	-137.96599	567.97906	-328.55899	20.80727	570.54559	-347.08945	-29.35499	584.48688	611.58801	126.93801	580.55548	594.34760	
5146	51.450	-228.78806	68.07095	-170.36862	153.84131	-2.55461	-223.62547	-154.09270	46.46406	437.74902	198.58525	117.86449	415.66495	-177.75395	1199.05042	-343.04019	-138.11731	567.09027	-328.98151	20.78636	569.71161	-347.17844	-30.44552	585.02039	611.47009	124.89838	580.98578	593.83087	
5147	51.460	-231.08498	81.04477	-171.63882	154.01576	-2.88261	-223.70236	-153.89400	46.64315	437.53287	200.02676	131.49010	414.39642	-178.02342	1195.55920	-345.60242	-138.21819	565.60431	-329.35178	20.69168	568.73254	-347.40875	-32.06197	585.68463	611.07349	123.37706	581.78760	593.71021	
5148	51.470	-233.37256	93.15878	-172.83836	154.67546	-3.51729	-223.79547	-153.63861	46.86145	437.36334	200.44240	144.20857	413.14706	-178.71616	1193.61011	-347.89594	-138.86226	564.00317	-329.85718	20.53582	567.34320	-347.66043	-32.95368	586.12659	610.74951	122.86169	583.18738	593.89502	
5149	51.480	-234.52460	104.29351	-173.91882	155.44421	-3.66063	-223.81505	-153.28270	47.04537	437.11154	199.45663	156.49927	412.14978	-180.16098	1192.92346	-349.69034	-138.81512	562.07343	-330.15234	20.45254	565.75323	-347.95831	-34.71551	587.04810	610.46857	121.27837	584.62445	594.06580	
5150	51.490	-235.47623	115.03866	-175.03090	155.87749	-3.77826	-223.77174	-152.67482	47.09380	437.07416	198.09705	168.12505	411.38629	-182.05266	1192.28857	-350.71478	-138.04880	560.41968	-330.23672	20.36475	564.24719	-347.65152	-35.97704	588.19464	610.15753	120.30430	585.78772	593.93866	
5151	51.500	-236.31755	124.06113	-176.44820	156.42899	-3.73582	-223.68668	-152.25620	47.27645	436.90582	195.07761	178.01299	410.65063	-183.95753	1190.95740	-352.07507	-138.88820	559.50403	-330.85687	20.13576	563.39429	-348.39215	-36.84314	589.47552	609.91150	118.45618	586.50226	593.24536	
5152	51.510	-237.57132	130.80850	-177.70653	156.92044	-3.79487	-223.67958	-151.98381	47.74475	436.64499	192.50331	185.67072	410.06735	-185.17688	1189.13538	-353.56113	-139.13777	557.97156	-331.47800	20.24835	562.09412	-348.51996	-38.23353	590.23584	609.45410	117.70672	588.24756	593.27527	
5153	51.520	-239.47430	134.09795	-178.72070	158.32922	-3.71661	-223.43199	-151.50560	47.99644	436.39359	190.79541	189.11115	409.80966	-186.40060	1186.84070	-355.83728	-139.16397	556.97314	-331.95862	19.88503	561.44769	-348.89432	-39.60836	591.04974	609.07605	116.42837	589.13397	593.25244	
5154	51.530	-241.39954	134.68954	-180.20549	158.54761	-4.07966	-223.54698	-151.30411	47.92664	436.14084	188.86880	189.46927	408.63263	-187.08276	1185.17932	-358.19583	-138.93111	555.76215	-331.88217	19.78482	560.38391	-348.66473	-41.41636	591.59674	608.75861	114.72427	589.81281	592.73163	
5155	51.540	-243.81123	132.15732	-181.47864	158.71622	-4.22769	-223.50523	-150.76080	47.88670	436.26910	187.15265	186.69032	407.44003	-187.95033	1184.16064	-360.25211	-139.45589	554.94147	-332.75650	19.58842	559.71655	-349.18109	-42.98323	592.08142	608.43066	112.62447	590.17963	592.46954	
5156	51.550	-245.38191	127.98936	-182.90195	159.05756	-4.45111	-223.47765	-150.25662	48.00867	436.32074	185.26530	182.80478	406.19940	-189.06400	1183.34802	-361.75052	-139.21280	553.77374	-332.85092	19.44599	559.31671	-349.51804	-44.50921	592.54083	607.97382	111.45548	591.23132	592.46619	
